<svg width="819.03" height="550.64" version="1.1" viewBox="0 0 216.7 145.69" xml:space="preserve" xmlns="http://www.w3.org/2000/svg" xmlns:xlink="http://www.w3.org/1999/xlink"><defs><linearGradient id="linearGradient871" x1="83.883" x2="300.58" y1="148.69" y2="148.69" gradientUnits="userSpaceOnUse"><stop stop-color="#7de2d1" offset="0"/><stop stop-color="#a78bfa" offset=".44412"/><stop stop-color="#f472b6" offset="1"/></linearGradient><linearGradient id="linearGradient3852" x1="230.36" x2="252.41" y1="152.16" y2="152.16" gradientTransform="translate(.52917)" gradientUnits="userSpaceOnUse"><stop stop-color="#c283e3" offset="0"/><stop stop-color="#db7acd" offset="1"/></linearGradient></defs><g transform="translate(-83.883 -75.846)"><path d="m165.86 221.22c-2.4449-1.2498-3.4071-4.3234-1.9159-6.1202 0.26911-0.32427-0.72496-1.4379-6.0082-6.7308-5.1865-5.196-6.4263-6.3104-6.8598-6.1664-1.284 0.42681-3.0619 0.42067-3.7236-0.0129-1.5513-1.0164-2.1122-3.0779-1.277-4.6931l0.42337-0.81872-8.4079-8.411c-8.2632-8.2663-8.4196-8.4051-9.0885-8.0652-1.8518 0.94094-4.3583 1.3256-8.618 1.3225-4.6819-3e-3 -6.8663-0.41895-10.299-1.9593-1.8474-0.82887-5.1669-2.8648-6.163-3.7798l-0.58752-0.53972-3.6458 3.4833c-2.0052 1.9158-6.3822 6.0707-9.7266 9.2331l-6.0808 5.7498 2.6589-3.3073c4.3404-5.3989 9.735-12.237 10.422-13.211 0.71407-1.0123 0.60031-0.96399-1.8451 0.78406-0.94588 0.67615-1.8891 1.3277-2.096 1.4478s1.035-1.4979 2.7599-3.5956c1.7249-2.0977 3.2466-3.9609 3.3815-4.1403 0.16608-0.22088-0.07089-0.80266-0.73366-1.8012-4.3114-6.4954-5.5216-15.403-3.1248-23.002 2.6061-8.2619 9.036-14.802 17.011-17.303 2.7388-0.85892 4.9393-1.1704 8.2021-1.1611 3.8378 0.0109 7.2556 0.73993 10.297 2.1962 1.2247 0.5865 2.3075 0.97305 2.406 0.85901 0.0986-0.11405 2.0089-2.3505 4.2451-4.9699 2.2362-2.6194 7.1106-8.2748 10.832-12.568 3.7214-4.2929 8.5997-9.9483 10.841-12.568 2.241-2.6194 4.9754-5.7767 6.0766-7.0162 1.1011-1.2395 2.517-2.8469 3.1466-3.5719 1.3429-1.5467 1.218-1.2162-0.50202 1.3277-0.68876 1.0186-6.0157 9.0122-11.838 17.763l-10.585 15.911-0.0836 22.805c-0.046 12.543-0.17886 22.864-0.29536 22.936s-1.697 0.0463-3.5122-0.0571l-3.3004-0.18803-3e-3 -17.096-4e-3 -17.096-1.6912 2.6458c-0.93015 1.4552-2.2269 3.4793-2.8816 4.4979-1.5764 2.4526-6.4104 8.9096-7.9524 10.622-0.67436 0.74899-1.2261 1.4712-1.2261 1.605s2.3784 3.5095 5.2853 7.5018 5.2877 7.3181 5.2907 7.3909c3e-3 0.0728-2.0718 0.15581-4.6107 0.18456l-4.6161 0.0523-3.3488-4.6182c-1.8418-2.54-3.4684-4.6922-3.6146-4.7825-0.1462-0.0904-0.34182-0.0597-0.43468 0.068-0.5823 0.8012-12.07 10.595-13.596 11.592-0.40018 0.26132-0.7276 0.58074-0.7276 0.70982 0 0.45792 3.3402 2.7076 5.5562 3.7422 3.6556 1.7066 6.6628 2.3793 10.716 2.3968 2.6843 0.0116 3.9509-0.11188 5.7683-0.56225 4.1334-1.0243 8.0251-3.1311 10.921-5.9123 1.1626-1.1164 1.7528-1.5101 2.0773-1.3856 0.38592 0.14809 0.30307 0.33084-0.55793 1.2307-1.477 1.5437-4.7545 3.9155-6.6436 4.8077-0.90398 0.42694-1.6436 0.84436-1.6436 0.92761 0 0.0833 3.7267 3.8766 8.2815 8.4298l8.2815 8.2784 0.78047-0.40698c2.2603-1.1786 4.878 0.52108 4.8805 3.1689 5.3e-4 0.58609-0.19371 1.3436-0.43167 1.6833-0.42945 0.61313-0.38558 0.6648 5.9063 6.9567l6.339 6.339 0.99889-0.58936c1.3031-0.76885 2.9566-0.74897 4.3829 0.0527l1.0804 0.60724 9.206-9.1947-0.14595-1.2323c-0.13178-1.1127-0.0631-1.3267 0.70672-2.2035 0.66768-0.76048 1.0476-0.97114 1.7513-0.97114h0.89864v-19.05c0-16.757-0.0478-19.05-0.39688-19.05-0.66303 0-1.4552-1.0082-1.4552-1.8521 0-1.0184 0.83363-1.8521 1.8521-1.8521 1.8427 0 2.5486 2.327 1.0594 3.4924l-0.79268 0.62036 0.1747 18.978c0.13573 14.744 0.24729 18.978 0.50004 18.978 0.30161 0 10.454-9.8521 25.186-24.442l6.1516-6.092v-7.0369h-19.315v-1.1959c0-1.3067 0.19026-1.6277 5.7204-9.652 1.4542-2.11 3.3264-4.8325 4.1605-6.0498l1.5165-2.2133-1.8122-2.02c-0.99671-1.111-4.0011-4.5203-6.6765-7.5762-2.6753-3.0559-5.974-6.7628-7.3303-8.2376l-2.466-2.6813-0.97776 0.49849c-1.2263 0.62518-1.826 0.62642-3.0423 6e-3l-0.96541-0.4922-6.8296 7.8149c-3.7563 4.2982-7.2162 8.259-7.6888 8.8017l-0.85922 0.98677 1.4138 0.7979c1.3423 0.75754 3.6119 2.9937 3.6119 3.5586 0 0.14495 0.57471-0.27404 1.2771-0.93107 2.6762-2.5032 5.3707-3.6403 8.6265-3.6403 3.7858 0 6.5676 1.7574 8.0796 5.1044 1.2976 2.8724 1.4032 3.9944 1.4122 15.004l8e-3 10.186-6.9339 0.1474-0.096-9.9956c-0.0845-8.8036-0.15232-10.145-0.56854-11.244-0.56475-1.4924-1.9176-2.7602-3.2025-3.0012-2.2214-0.41674-5.2135 0.83664-6.1029 2.5565-0.65673 1.27-0.90175 5.045-0.89132 13.732l9e-3 7.8052-0.67672-0.0165c-0.3722-9e-3 -1.9202-0.0389-3.4401-0.0661l-2.7634-0.0496-0.0961-9.8557c-0.068-6.9716-0.19345-10.151-0.42882-10.865-0.50612-1.5353-2.1302-3.0165-3.5393-3.2278-2.2984-0.34466-4.6314 0.7873-5.755 2.7922l-0.66146 1.1804-0.1558 20.241-0.98041-1e-3c-0.53923-8e-4 -2.1413-0.0782-3.5601-0.1722l-2.5797-0.17087v-29.554h6.0265l0.17902 0.95429c0.0985 0.52486 0.29012 1.2465 0.4259 1.6036l0.24687 0.64932 1.2572-1.0448c2.3663-1.9665 4.4318-2.7269 7.404-2.7258l2.178 7.9e-4 3.7867-4.2828c3.0123-3.407 8.6721-9.9178 11.248-12.94 0.34234-0.40157 0.3344-0.56812-0.0674-1.4148-0.78645-1.6573-0.0296-3.5802 1.777-4.5144 2.6415-1.366 5.7151 1.6254 4.5964 4.4734l-0.40906 1.0414 2.4435 2.6837c1.3439 1.4761 4.8941 5.4817 7.8893 8.9014 7.3715 8.4163 7.849 8.9214 8.0942 8.5618 0.11316-0.16597 1.8671-2.7556 3.8977-5.7547s3.8165-5.4558 3.9688-5.4592c0.15221-3e-3 0.92021-1.1048 1.7067-2.4474 0.78645-1.3426 3.3557-5.5367 5.7094-9.3202 6.0844-9.7806 5.5431-8.7867 5.0525-9.2773-0.97344-0.97344-0.8278-3.1941 0.26589-4.0544 0.97432-0.7664 2.0526-0.92712 2.9851-0.44493 1.5693 0.81154 2.0697 2.4878 1.2283 4.1148l-0.39454 0.76296c16.34 2.2962 15.988 2.1398 25.948 2.29 1.3956-1.4584 3.7987-4.0208 5.3402-5.6943 2.7477-2.983 2.7933-3.0531 2.3222-3.5719-1.0509-1.1572-1.3954-2.259-1.2899-4.1263 0.0857-1.5176 0.22612-1.9536 0.90282-2.8041 1.9333-2.4299 5.4598-2.8693 7.5858-0.94523 0.57545 0.52078 0.1435 0.93193 10.886-10.362l7.0287-7.3893-0.1635-1.0225c-0.13435-0.84015-0.0546-1.1384 0.44739-1.6727 1.2167-1.2951 3.1645-0.49919 3.1645 1.2931 0 1.4104-0.93185 2.0027-2.6784 1.7024-0.37425-0.06436-5.9101 5.5339-15.881 16.06l-2.023 2.1356 0.41422 0.78714c0.22783 0.43293 0.48331 1.4977 0.56776 2.3662l0.15353 1.579 18.623 6.2596 0.88401-0.96463c1.186-1.2942 2.7986-1.526 4.1731-0.59985 2.392 1.6117 2.2955 4.7353-0.18265 5.9112-1.1077 0.52565-2.5273 0.38661-3.324-0.32559-0.52079-0.46554-0.71636-0.28579-10.551 9.697-5.5109 5.5942-10.02 10.267-10.02 10.385 0 0.11746 0.26789 0.21365 0.59531 0.21376 0.99066 2.7e-4 3.7511 1.4584 4.8232 2.5476 3.1536 3.2039 3.5905 9.0828 1.0522 14.157-1.808 3.6141-4.4493 6.9304-10.115 12.7l-5.4216 5.5207h18.062v3.7042h-24.077v-2.8063l6.5704-6.6005c8.3074-8.3454 10.766-11.601 11.821-15.65 0.4574-1.7561 0.50946-4.2823 0.11734-5.6942-1.0017-3.607-5.2508-5.4866-9.7799-4.3263-1.7541 0.44938-4.1828 1.6571-5.1952 2.5835-0.65774 0.60185-0.71234 0.54306-1.4283-1.5379-0.48914-1.4217-0.49187-1.5165-0.0536-1.8597 0.96441-0.75525 4.3-2.2299 5.984-2.6454l1.7538-0.4328v-26.382l-0.59531-2e-3c-0.32742-7.9e-4 -0.91526-0.16855-1.3063-0.37257-0.70844-0.3696-0.72457-0.35648-4.4731 3.6396-2.0692 2.2058-3.4516 3.6934-4.6342 4.9304-8.9025 0.11014-17.527-1.0947-22.054-1.7409l-4.1414-0.50183-3.3111 0.0472-3.4684 5.5327c-1.9076 3.043-4.6955 7.5568-6.1953 10.031l-2.7269 4.4979 2.6348 0.16v27.468l2.1828 0.0768 2.1828 0.0769c-0.0373 3.1784 1.4112 3.3073-2.104 3.3073h-2.2616v8.7312h-1.8521c-1.4699 0-1.8521-0.0819-1.8521-0.39688 0-0.21828-0.0732-0.39687-0.16266-0.39687-0.13392 0-11.973 11.539-27.611 26.91l-3.035 2.9833 0.45531 0.77077c1.2405 2.1 0.0256 4.5256-2.2668 4.5256-0.79941 0-1.405-0.18065-1.8934-0.56485l-0.71809-0.56485-4.6873 4.6611c-4.4289 4.4042-4.6689 4.6942-4.3541 5.2612 0.18328 0.33005 0.33745 1.2076 0.3426 1.95 0.0102 1.476-0.61549 2.6804-1.8786 3.6158-0.9453 0.70004-2.7869 0.8527-3.8334 0.31778zm2.6889-1.8311c2.3333-0.9749 1.4656-4.3784-1.1162-4.3784-2.1141 0-3.0308 2.6945-1.3872 4.0775 0.93925 0.79033 1.2443 0.827 2.5034 0.3009zm-61.795-50.148c7.7207-5.8301 14.267-11.918 18.35-17.066 2.7273-3.4381 6.7187-9.0198 10.464-14.634l2.7002-4.047-0.0785-1.6024-0.0784-1.6024-1.4487 1.8129c-2.6008 3.2548-14.558 17.561-19.309 23.102-10.498 12.245-14.027 16.414-13.891 16.414 0.0784 0 1.5594-1.0699 3.2912-2.3776zm-5.7718 0.36908c0.81386-1.0736 5.0513-6.1055 7.7655-9.2214 1.0211-1.1723 2.4827-2.8655 3.2478-3.7626l1.3912-1.6312-4.0095-5.6449c-2.2052-3.1047-4.3514-6.0787-4.7692-6.609-0.41782-0.53026-0.75966-1.0363-0.75966-1.1245s2.0766-0.16036 4.6147-0.16036h4.6148l1.161 1.5214c0.63852 0.83675 1.821 2.4964 2.6277 3.6882l1.4667 2.1668 2.8779-3.3414c1.5828-1.8378 4.3488-5.075 6.1466-7.1939 1.7978-2.1189 3.6853-4.2868 4.1944-4.8176l0.92568-0.96507-1.1517-0.66868c-1.474-0.85582-3.7367-1.6065-6.5673-2.1788-2.8725-0.58081-7.9264-0.4059-10.909 0.37753-9.6794 2.5427-16.926 10.788-18.633 21.201-0.76294 4.6547 0.11614 10.522 2.2411 14.957 1.1525 2.4053 2.3332 4.3628 2.6231 4.3484 0.10732-5e-3 0.5127-0.42858 0.90086-0.9406zm114.52-20.388v-11.019l-4.5792 6.8521c-5.3628 8.0245-7.8019 11.602-9.1983 13.493-0.55621 0.75292-0.93819 1.442-0.84884 1.5314 0.0893 0.0893 3.4168 0.16246 7.3944 0.16246h7.2319zm68.809-26.852c9.6999-9.8888 10.098-10.334 9.8088-10.969-0.16588-0.36407-0.3016-1.0494-0.3016-1.523v-0.86101l-9.4017-3.1304c-5.1709-1.7217-9.4318-3.0849-9.4686-3.0291-1.2749 1.9291-1.7224 2.4094-2.6741 2.8701-0.61179 0.29615-1.3724 0.53847-1.6903 0.53847h-0.57792v26.366l4.1949 0.0452 10.11-10.307zm14.186-11.123c0.76868-0.72214 0.78342-1.7221 0.0371-2.5165-1.2174-1.2959-3.2355-0.47034-3.185 1.303 0.0463 1.6285 1.9323 2.3555 3.148 1.2135zm-27.295-7.515c0.9064-0.43011 1.7141-1.7234 1.7141-2.7447 0-0.78826-0.67547-2.0168-1.3803-2.5105-0.32425-0.22711-1.108-0.41294-1.7417-0.41294-0.91382 0-1.308 0.15594-1.906 0.75394-1.4869 1.4869-1.2691 3.5334 0.50304 4.7263 1.0609 0.71416 1.6227 0.75171 2.8109 0.18787zm-35.798 92.61c-0.43615-0.30549-0.58804-0.6775-0.58804-1.4402s0.15189-1.1347 0.58804-1.4402c0.80207-0.5618 1.688-0.51705 2.3224 0.11729 0.7151 0.71509 0.66635 1.739-0.12026 2.5256-0.75084 0.75084-1.3734 0.818-2.2021 0.23756zm10.828 0.12007c-2.3558-0.4481-4.431-2.1997-5.2176-4.404-0.42136-1.1808-0.47716-3.5337-0.11474-4.8383 1.0372-3.7333 4.8752-6.0627 8.7896-5.3348 0.89186 0.16586 1.7218 0.40181 1.8443 0.52434 0.12253 0.12252 0.0891 0.60611-0.0742 1.0746-0.25073 0.71925-0.38513 0.81962-0.86337 0.64476-0.31153-0.1139-1.4094-0.20709-2.4397-0.20709-1.6572 0-1.9886 0.088-2.8731 0.76303-0.54988 0.41967-1.2223 1.2531-1.4943 1.8521-0.95971 2.1134-0.46384 5.5449 0.98749 6.8336 1.3483 1.1972 3.5736 1.5597 5.4547 0.88851 1.103-0.39359 1.1606-0.3592 1.2933 0.77266 0.0823 0.70229-0.0113 0.82445-0.83328 1.0874-1.4078 0.45026-3.1793 0.5866-4.4591 0.34318zm12.056-0.0717c-1.6702-0.46601-2.9899-1.571-3.9973-3.3472-0.74284-1.3097-0.82119-1.6644-0.81675-3.6976 4e-3 -1.7972 0.12615-2.4971 0.60847-3.4842 2.8412-5.8146 11.135-5.307 12.845 0.78608 0.77735 2.7704 0.37925 5.3009-1.1705 7.4403-1.447 1.9976-4.8268 3.0396-7.4684 2.3026zm4.1557-2.2692c1.255-0.77563 2.0591-2.4201 2.2092-4.518 0.10874-1.5198 0.0273-2.0031-0.54936-3.2628-0.83659-1.8273-1.89-2.5486-3.7241-2.55-1.7878-1e-3 -2.8747 0.72971-3.7526 2.5241-1.2804 2.6171-0.59028 6.2984 1.4394 7.6776 1.2097 0.82203 3.1632 0.87969 4.3775 0.12921zm17.205 2.1339c-0.0652-0.0652-0.11921-2.2121-0.12003-4.7708-7.9e-4 -2.5587-0.12397-5.0933-0.27369-5.6324-0.7279-2.6209-3.9861-2.707-5.5471-0.14675-0.47381 0.77711-0.52586 1.3395-0.52675 5.691l-9.9e-4 4.8286h-2.3812l-2e-3 -4.9609c-7.9e-4 -2.7285-0.078-5.9432-0.17151-7.1438l-0.16992-2.1828h1.0675c1.0617 0 1.0685 6e-3 1.2453 1.1855l0.17778 1.1855 0.97674-1.024c0.92886-0.97378 2.3758-1.6146 3.6226-1.6044 1.0723 9e-3 2.7768 1.0186 3.345 1.9816l0.56337 0.95485 0.80522-0.97687c1.818-2.2055 4.8544-2.5757 6.7645-0.82476 1.4216 1.3031 1.6066 2.236 1.6129 8.1299l6e-3 5.4355-2.249-0.0232-0.13229-5.2917c-0.0886-3.5423-0.24231-5.484-0.46507-5.8734-1.1438-1.9996-3.7263-1.8107-5.2159 0.38145-0.65498 0.96388-0.66905 1.0856-0.66905 5.7902v4.8056l-1.0721 0.10224c-0.58964 0.0562-1.1254 0.0489-1.1906-0.0163zm9.3152-24.229c-2.7269-0.9711-3.8699-3.8989-2.4801-6.3527 0.84756-1.4964 2.088-2.2568 3.6819-2.2568 2.173 0 3.8755 1.3221 4.45 3.4557 0.87553 3.2515-2.4579 6.2912-5.6518 5.1538zm3.1104-2.5444c1.8165-2.1588-0.46435-5.1373-2.9498-3.852-2.3323 1.2061-1.3938 4.6661 1.2657 4.6661 0.79087 0 1.1419-0.16968 1.6841-0.81405z" fill="url(#linearGradient871)"/><path d="m238.7 132.17c-4.3257 0-7.8078 3.4826-7.8078 7.8083v24.364c0 4.3257 3.4821 7.8083 7.8078 7.8083h6.4348c4.3257 0 7.8083-3.4826 7.8083-7.8083v-24.364c0-4.3257-3.4826-7.8083-7.8083-7.8083h-6.272zm0.47491 3.4985h5.6803c2.6964 0 4.8669 2.2866 4.8669 5.1268v22.662c0 2.8402-2.1705 5.1268-4.8669 5.1268h-5.6803c-2.6964 0-4.8669-2.2867-4.8669-5.1268v-22.662c0-2.8402 2.1705-5.1268 4.8669-5.1268z" fill="url(#linearGradient3852)" stop-color="#000000"/></g></svg>
