<?xml version="1.0" encoding="UTF-8" standalone="no"?>
<!-- Created with Inkscape (http://www.inkscape.org/) -->

<svg
   width="819.02533"
   height="550.63763"
   viewBox="0 0 216.70045 145.68955"
   version="1.1"
   id="svg5"
   inkscape:version="1.2.1 (9c6d41e410, 2022-07-14)"
   sodipodi:docname="logo_inkscape.svg"
   xml:space="preserve"
   xmlns:inkscape="http://www.inkscape.org/namespaces/inkscape"
   xmlns:sodipodi="http://sodipodi.sourceforge.net/DTD/sodipodi-0.dtd"
   xmlns:xlink="http://www.w3.org/1999/xlink"
   xmlns="http://www.w3.org/2000/svg"
   xmlns:svg="http://www.w3.org/2000/svg"><sodipodi:namedview
     id="namedview7"
     pagecolor="#ffffff"
     bordercolor="#000000"
     borderopacity="0.25"
     inkscape:showpageshadow="2"
     inkscape:pageopacity="0.0"
     inkscape:pagecheckerboard="0"
     inkscape:deskcolor="#d1d1d1"
     inkscape:document-units="mm"
     showgrid="false"
     inkscape:zoom="1.829812"
     inkscape:cx="283.36244"
     inkscape:cy="139.35858"
     inkscape:window-width="3840"
     inkscape:window-height="2054"
     inkscape:window-x="3061"
     inkscape:window-y="-11"
     inkscape:window-maximized="1"
     inkscape:current-layer="layer1" /><defs
     id="defs2"><linearGradient
       inkscape:collect="always"
       id="linearGradient3850"><stop
         style="stop-color:#c283e3;stop-opacity:1;"
         offset="0"
         id="stop3846" /><stop
         style="stop-color:#db7acd;stop-opacity:1;"
         offset="1"
         id="stop3848" /></linearGradient><linearGradient
       inkscape:collect="always"
       id="linearGradient869"><stop
         style="stop-color:#7de2d1;stop-opacity:1;"
         offset="0"
         id="stop865" /><stop
         style="stop-color:#a78bfa;stop-opacity:1;"
         offset="0.44411764"
         id="stop1599" /><stop
         style="stop-color:#f472b6;stop-opacity:1;"
         offset="1"
         id="stop867" /></linearGradient><linearGradient
       inkscape:collect="always"
       xlink:href="#linearGradient869"
       id="linearGradient871"
       x1="83.882567"
       y1="148.6912"
       x2="300.58302"
       y2="148.6912"
       gradientUnits="userSpaceOnUse" /><linearGradient
       inkscape:collect="always"
       xlink:href="#linearGradient3850"
       id="linearGradient3852"
       x1="230.35838"
       y1="152.15702"
       x2="252.40923"
       y2="152.15702"
       gradientUnits="userSpaceOnUse"
       gradientTransform="translate(0.52916663)" /></defs><g
     inkscape:label="Layer 1"
     inkscape:groupmode="layer"
     id="layer1"
     transform="translate(-83.882567,-75.846428)"><path
       style="fill:url(#linearGradient871);fill-opacity:1;stroke:none;stroke-width:0.264583"
       d="m 165.86134,221.21532 c -2.44489,-1.24977 -3.40706,-4.32341 -1.91586,-6.12019 0.26911,-0.32427 -0.72496,-1.4379 -6.00816,-6.7308 -5.18648,-5.19599 -6.42626,-6.31045 -6.85979,-6.16635 -1.28405,0.42681 -3.06192,0.42067 -3.72357,-0.0129 -1.55128,-1.01644 -2.11223,-3.07794 -1.27701,-4.69307 l 0.42337,-0.81872 -8.40793,-8.41102 c -8.26324,-8.26626 -8.41965,-8.40506 -9.08848,-8.06522 -1.8518,0.94094 -4.35833,1.32558 -8.61805,1.32249 -4.68192,-0.003 -6.86631,-0.41895 -10.29949,-1.95931 -1.8474,-0.82887 -5.16689,-2.86475 -6.16302,-3.77985 l -0.58752,-0.53972 -3.645817,3.48331 c -2.005198,1.91581 -6.382182,6.0707 -9.726631,9.23307 l -6.080815,5.74976 2.658883,-3.30729 c 4.340394,-5.39887 9.734994,-12.23714 10.421783,-13.2108 0.714066,-1.01232 0.600313,-0.96399 -1.845077,0.78406 -0.945885,0.67615 -1.889097,1.32767 -2.096025,1.44783 -0.206928,0.12016 1.035043,-1.49786 2.759933,-3.59558 1.724893,-2.09773 3.246562,-3.96087 3.381486,-4.14032 0.166082,-0.22088 -0.07089,-0.80266 -0.733665,-1.80117 -4.311425,-6.49544 -5.521571,-15.4034 -3.12478,-23.00172 2.606096,-8.26186 9.036015,-14.80231 17.010965,-17.30338 2.73878,-0.85892 4.93929,-1.17044 8.20209,-1.16114 3.83778,0.0109 7.2556,0.73993 10.2966,2.19619 1.22474,0.5865 2.30746,0.97305 2.40604,0.85901 0.0986,-0.11405 2.00887,-2.35048 4.24511,-4.96986 2.23623,-2.61937 7.11063,-8.27484 10.832,-12.56771 3.72136,-4.29286 8.59966,-9.94833 10.84066,-12.5677 2.241,-2.619379 4.97545,-5.776668 6.07655,-7.016201 1.1011,-1.239536 2.51704,-2.84688 3.14655,-3.571875 1.34294,-1.546659 1.21797,-1.216168 -0.50202,1.327655 -0.68876,1.018646 -6.01568,9.012201 -11.83762,17.763461 l -10.58535,15.91139 -0.0836,22.80521 c -0.046,12.54287 -0.17886,22.86412 -0.29536,22.93612 -0.1165,0.072 -1.69698,0.0463 -3.51217,-0.0571 l -3.30036,-0.18803 -0.003,-17.09594 -0.004,-17.09593 -1.69119,2.64583 c -0.93015,1.45521 -2.22686,3.47927 -2.88158,4.49792 -1.57638,2.45265 -6.41044,8.90958 -7.95244,10.6222 -0.67436,0.74899 -1.22611,1.47122 -1.22611,1.60496 0,0.13374 2.37837,3.50953 5.28527,7.50175 2.9069,3.99222 5.28772,7.31812 5.29072,7.39088 0.003,0.0728 -2.0718,0.15581 -4.61066,0.18456 l -4.61611,0.0523 -3.34878,-4.61822 c -1.84183,-2.54003 -3.4684,-4.69216 -3.61461,-4.78252 -0.1462,-0.0904 -0.34182,-0.0597 -0.43468,0.068 -0.5823,0.8012 -12.06954,10.59496 -13.59647,11.59203 -0.40018,0.26132 -0.7276,0.58074 -0.7276,0.70982 0,0.45792 3.34025,2.7076 5.55625,3.74217 3.65555,1.70665 6.66275,2.37926 10.71563,2.39675 2.68429,0.0116 3.95093,-0.11188 5.76827,-0.56225 4.13344,-1.02434 8.02507,-3.13107 10.92144,-5.91231 1.16262,-1.1164 1.75283,-1.51009 2.07727,-1.38559 0.38592,0.14809 0.30307,0.33084 -0.55793,1.23071 -1.47703,1.54372 -4.75448,3.91546 -6.64359,4.80768 -0.90398,0.42694 -1.64359,0.84436 -1.64359,0.92761 0,0.0833 3.72668,3.87664 8.28152,8.42975 l 8.28151,8.27839 0.78047,-0.40698 c 2.26028,-1.17864 4.87805,0.52108 4.88051,3.16891 5.3e-4,0.58609 -0.19371,1.34358 -0.43167,1.68332 -0.42945,0.61313 -0.38558,0.6648 5.90634,6.95672 l 6.339,6.33901 0.99889,-0.58936 c 1.3031,-0.76885 2.95655,-0.74897 4.38294,0.0527 l 1.08044,0.60724 4.60301,-4.59737 4.603,-4.59737 -0.14595,-1.23233 c -0.13178,-1.11266 -0.0631,-1.32666 0.70672,-2.20348 0.66768,-0.76048 1.04759,-0.97114 1.75128,-0.97114 h 0.89864 v -19.05 c 0,-16.75695 -0.0478,-19.05 -0.39688,-19.05 -0.66303,0 -1.45521,-1.00823 -1.45521,-1.85209 0,-1.01845 0.83363,-1.85208 1.85209,-1.85208 1.84274,0 2.54861,2.32695 1.05941,3.49242 l -0.79268,0.62036 0.1747,18.97799 c 0.13573,14.74354 0.24729,18.97798 0.50004,18.97798 0.30161,0 10.45366,-9.85207 25.18613,-24.44191 l 6.15156,-6.09201 v -3.51846 -3.51845 h -9.65729 -9.65729 v -1.1959 c 0,-1.30666 0.19026,-1.6277 5.72042,-9.65202 1.45419,-2.11005 3.3264,-4.83246 4.16047,-6.04979 l 1.51648,-2.21333 -1.81221,-2.02 c -0.99671,-1.111 -4.00112,-4.52032 -6.67646,-7.57625 -2.67534,-3.05594 -5.97397,-6.76284 -7.33029,-8.23756 l -2.46603,-2.6813 -0.97776,0.49849 c -1.22626,0.62518 -1.82596,0.62642 -3.04231,0.006 l -0.96541,-0.4922 -6.8296,7.81493 c -3.75627,4.2982 -7.21624,8.25897 -7.68881,8.80169 l -0.85922,0.98677 1.4138,0.7979 c 1.34228,0.75754 3.61193,2.9937 3.61193,3.55864 0,0.14495 0.57471,-0.27404 1.27714,-0.93107 2.67617,-2.50325 5.37066,-3.6403 8.62646,-3.6403 3.78583,0 6.56764,1.75744 8.07962,5.10441 1.29762,2.87245 1.40322,3.99437 1.4122,15.00392 l 0.008,10.18646 -3.46694,0.0737 -3.46694,0.0737 -0.096,-9.99558 c -0.0845,-8.80356 -0.15232,-10.14451 -0.56854,-11.2444 -0.56475,-1.49236 -1.9176,-2.76019 -3.2025,-3.00124 -2.22142,-0.41674 -5.21349,0.83664 -6.10286,2.55649 -0.65673,1.26996 -0.90175,5.04497 -0.89132,13.73211 l 0.009,7.80521 -0.67672,-0.0165 c -0.3722,-0.009 -1.92024,-0.0389 -3.44009,-0.0661 l -2.76336,-0.0496 -0.0961,-9.85573 c -0.068,-6.97155 -0.19345,-10.15111 -0.42882,-10.8651 -0.50612,-1.53533 -2.13025,-3.01654 -3.53926,-3.22784 -2.29839,-0.34466 -4.63143,0.7873 -5.75495,2.79224 l -0.66146,1.18039 -0.0779,10.12031 -0.0779,10.12031 -0.98041,-0.001 c -0.53923,-8e-4 -2.14128,-0.0782 -3.5601,-0.1722 l -2.57969,-0.17087 v -14.77676 -14.77677 h 3.01326 3.01327 l 0.17902,0.95429 c 0.0985,0.52486 0.29012,1.24649 0.4259,1.60361 l 0.24687,0.64932 1.25719,-1.04478 c 2.36634,-1.96652 4.4318,-2.72693 7.40399,-2.72582 l 2.17804,7.9e-4 3.78669,-4.28278 c 3.01234,-3.40696 8.67207,-9.91782 11.24844,-12.94 0.34234,-0.40157 0.3344,-0.56812 -0.0674,-1.41479 -0.78645,-1.65733 -0.0296,-3.58022 1.77695,-4.51441 2.64154,-1.36599 5.7151,1.62537 4.59636,4.47343 l -0.40906,1.04136 2.44347,2.68373 c 1.34391,1.47606 4.89411,5.48171 7.88933,8.90145 7.37148,8.41626 7.84902,8.92139 8.0942,8.56179 0.11316,-0.16597 1.86714,-2.75558 3.89774,-5.75469 2.0306,-2.99911 3.81653,-5.45577 3.96875,-5.45924 0.15221,-0.003 0.92021,-1.10481 1.70666,-2.4474 0.78645,-1.3426 3.35566,-5.53671 5.70936,-9.32025 6.08443,-9.78063 5.5431,-8.78667 5.05252,-9.27726 -0.97344,-0.97344 -0.8278,-3.19414 0.26589,-4.05444 0.97432,-0.7664 2.05261,-0.92712 2.98507,-0.44493 1.56934,0.81154 2.06972,2.48777 1.22833,4.11483 l -0.39454,0.76296 c 16.34021,2.29617 15.98796,2.13985 25.94838,2.29004 1.39558,-1.45838 3.79866,-4.02082 5.34018,-5.69431 2.74771,-2.98295 2.79331,-3.0531 2.32217,-3.57187 -1.05094,-1.15719 -1.39537,-2.25905 -1.28986,-4.12633 0.0857,-1.517564 0.22612,-1.953561 0.90282,-2.804069 1.93331,-2.42992 5.45975,-2.869324 7.58585,-0.945227 0.57545,0.52078 0.1435,0.931926 10.88584,-10.361551 l 7.02866,-7.389257 -0.1635,-1.022456 c -0.13435,-0.840153 -0.0546,-1.138396 0.44739,-1.67272 1.2167,-1.295119 3.16449,-0.499194 3.16449,1.293101 0,1.410436 -0.93185,2.002719 -2.67836,1.702356 -0.37425,-0.06436 -5.91014,5.533906 -15.88106,16.060012 l -2.02297,2.135603 0.41422,0.787144 c 0.22783,0.432929 0.48331,1.497713 0.56776,2.366184 l 0.15353,1.57905 9.31154,3.12982 9.31153,3.12983 0.88401,-0.96463 c 1.18603,-1.29418 2.79861,-1.52598 4.17313,-0.59985 2.392,1.61169 2.29549,4.73529 -0.18265,5.91124 -1.10774,0.52565 -2.5273,0.38661 -3.32402,-0.32559 -0.52079,-0.46554 -0.71636,-0.28579 -10.55052,9.69702 -5.51094,5.59424 -10.01989,10.26744 -10.01989,10.38489 0,0.11746 0.26789,0.21365 0.59531,0.21376 0.99066,2.7e-4 3.75109,1.45839 4.82317,2.54756 3.15359,3.20389 3.59054,9.08283 1.05221,14.15696 -1.80796,3.61412 -4.44928,6.93036 -10.11496,12.6996 l -5.42158,5.52067 h 9.03084 9.03084 v 1.85209 1.85208 h -12.03854 -12.03854 v -1.40317 -1.40317 l 6.57042,-6.60048 c 8.30744,-8.34543 10.7663,-11.60076 11.82101,-15.65007 0.4574,-1.75609 0.50946,-4.28232 0.11734,-5.69424 -1.00174,-3.60695 -5.25084,-5.48662 -9.77992,-4.32632 -1.75411,0.44938 -4.18284,1.65714 -5.19521,2.58348 -0.65774,0.60185 -0.71234,0.54306 -1.42829,-1.53788 -0.48914,-1.42171 -0.49187,-1.51649 -0.0536,-1.8597 0.96441,-0.75525 4.30003,-2.22987 5.98403,-2.64544 l 1.75381,-0.4328 V 119.4532 106.26205 l -0.59531,-0.002 c -0.32742,-7.9e-4 -0.91526,-0.16855 -1.30631,-0.37257 -0.70844,-0.3696 -0.72457,-0.35648 -4.47311,3.63965 -2.06915,2.20583 -3.45163,3.69344 -4.63425,4.93037 -8.90252,0.11014 -17.52702,-1.09466 -22.0536,-1.74091 l -4.14144,-0.50183 -1.65554,0.0236 -1.65553,0.0236 -3.4684,5.53269 c -1.90761,3.043 -4.69548,7.55677 -6.19526,10.03063 l -2.72687,4.49792 1.3174,0.08 1.31739,0.08 v 13.73381 13.7338 l 2.18281,0.0768 2.18281,0.0769 c -0.0373,3.17845 1.4112,3.30729 -2.10399,3.30729 h -2.26158 v 4.36562 4.36563 h -1.85208 c -1.46991,0 -1.85209,-0.0819 -1.85209,-0.39688 0,-0.21828 -0.0732,-0.39687 -0.16266,-0.39687 -0.13392,0 -11.97306,11.53859 -27.61087,26.90995 l -3.035,2.98328 0.45531,0.77077 c 1.24052,2.10003 0.0256,4.52558 -2.26679,4.52558 -0.79941,0 -1.40495,-0.18065 -1.89338,-0.56485 l -0.71809,-0.56485 -4.68727,4.66111 c -4.42889,4.40415 -4.66891,4.69418 -4.35406,5.2612 0.18328,0.33005 0.33745,1.20757 0.3426,1.95003 0.0102,1.476 -0.61549,2.68036 -1.87862,3.61577 -0.9453,0.70004 -2.78694,0.8527 -3.8334,0.31778 z m 2.68887,-1.8311 c 2.33326,-0.9749 1.46557,-4.37842 -1.11622,-4.37842 -2.11414,0 -3.03083,2.6945 -1.3872,4.07752 0.93925,0.79033 1.2443,0.827 2.50342,0.3009 z m -61.79516,-50.14774 c 7.72066,-5.83012 14.26665,-11.91797 18.35018,-17.06588 2.72726,-3.43812 6.71866,-9.01981 10.46438,-14.63365 l 2.70025,-4.04698 -0.0785,-1.60241 -0.0784,-1.60242 -1.44868,1.81293 c -2.60079,3.25475 -14.55825,17.56134 -19.30906,23.10246 -10.49825,12.24469 -14.02653,16.4136 -13.89133,16.4136 0.0784,0 1.55942,-1.06994 3.29117,-2.37765 z m -5.77178,0.36908 c 0.81386,-1.07358 5.05132,-6.10553 7.76547,-9.22144 1.02114,-1.1723 2.48267,-2.86547 3.24784,-3.7626 l 1.39121,-1.63115 -4.00953,-5.64489 c -2.20524,-3.10469 -4.35138,-6.07874 -4.76919,-6.60901 -0.41782,-0.53026 -0.75966,-1.03628 -0.75966,-1.12448 0,-0.0882 2.07663,-0.16036 4.61474,-0.16036 h 4.61475 l 1.16095,1.52135 c 0.63852,0.83675 1.82097,2.49644 2.62766,3.6882 l 1.46671,2.16684 2.87791,-3.34141 c 1.58284,-1.83778 4.34883,-5.07504 6.14664,-7.19392 1.79781,-2.11889 3.68529,-4.2868 4.19441,-4.8176 l 0.92568,-0.96507 -1.15171,-0.66868 c -1.47404,-0.85582 -3.73669,-1.6065 -6.56732,-2.17885 -2.87248,-0.58081 -7.92642,-0.4059 -10.90877,0.37753 -9.67943,2.54269 -16.926017,10.78817 -18.632791,21.20119 -0.762942,4.6547 0.116142,10.52154 2.241076,14.95651 1.152467,2.40534 2.333229,4.36276 2.623065,4.34844 0.10732,-0.005 0.5127,-0.42858 0.90086,-0.9406 z m 114.5203,-20.38779 V 138.1985 l -4.57922,6.85209 c -5.36278,8.02454 -7.80191,11.60242 -9.19828,13.49261 -0.55621,0.75292 -0.93819,1.44205 -0.84884,1.53139 0.0893,0.0893 3.41683,0.16246 7.3944,0.16246 h 7.23194 z m 68.80949,-26.85154 c 9.69987,-9.88878 10.09813,-10.33416 9.80878,-10.96922 -0.16588,-0.36407 -0.3016,-1.0494 -0.3016,-1.52295 v -0.86101 l -9.40166,-3.13044 c -5.17091,-1.72174 -9.43178,-3.08486 -9.4686,-3.02914 -1.27487,1.92906 -1.72243,2.40943 -2.67406,2.87011 -0.61179,0.29615 -1.3724,0.53847 -1.69026,0.53847 h -0.57792 v 13.18307 13.18307 l 2.09747,0.0226 2.09747,0.0226 10.11038,-10.30728 z m 14.18648,-11.12322 c 0.76868,-0.72214 0.78342,-1.72207 0.0371,-2.51651 -1.21745,-1.29592 -3.23546,-0.47034 -3.18504,1.303 0.0463,1.62848 1.93234,2.35553 3.14796,1.21351 z m -27.29546,-7.51495 c 0.9064,-0.43011 1.71408,-1.72341 1.71408,-2.74466 0,-0.78826 -0.67547,-2.016833 -1.38028,-2.510501 -0.32425,-0.227113 -1.108,-0.412935 -1.74166,-0.412935 -0.91382,0 -1.30804,0.155935 -1.90604,0.753941 -1.48688,1.486875 -1.26906,3.533375 0.50304,4.726285 1.0609,0.71416 1.62266,0.75171 2.81086,0.18787 z m -35.79788,92.60961 c -0.43615,-0.30549 -0.58804,-0.6775 -0.58804,-1.44021 0,-0.76271 0.15189,-1.13471 0.58804,-1.4402 0.80207,-0.5618 1.68803,-0.51705 2.32237,0.11729 0.7151,0.71509 0.66635,1.73896 -0.12026,2.52556 -0.75084,0.75084 -1.37342,0.818 -2.20211,0.23756 z m 10.82787,0.12007 c -2.35575,-0.4481 -4.43095,-2.19972 -5.21759,-4.40401 -0.42136,-1.18075 -0.47716,-3.53374 -0.11474,-4.83832 1.03716,-3.73329 4.87516,-6.06274 8.78958,-5.33478 0.89186,0.16586 1.72181,0.40181 1.84434,0.52434 0.12253,0.12252 0.0891,0.60611 -0.0742,1.07462 -0.25073,0.71925 -0.38513,0.81962 -0.86337,0.64476 -0.31153,-0.1139 -1.40939,-0.20709 -2.4397,-0.20709 -1.65717,0 -1.98864,0.088 -2.87307,0.76303 -0.54988,0.41967 -1.22233,1.25311 -1.49434,1.85208 -0.95971,2.11336 -0.46384,5.54491 0.98749,6.83365 1.3483,1.19725 3.57361,1.55973 5.45466,0.88851 1.10302,-0.39359 1.16059,-0.3592 1.29329,0.77266 0.0823,0.70229 -0.0113,0.82445 -0.83328,1.08737 -1.40775,0.45026 -3.17934,0.5866 -4.45909,0.34318 z m 12.05619,-0.0717 c -1.67023,-0.46601 -2.98986,-1.57103 -3.99732,-3.34724 -0.74284,-1.30966 -0.82119,-1.66437 -0.81675,-3.69759 0.004,-1.79719 0.12615,-2.49708 0.60847,-3.48416 2.84125,-5.81462 11.13489,-5.30705 12.84453,0.78608 0.77735,2.77043 0.37925,5.30093 -1.17052,7.44032 -1.44705,1.9976 -4.82684,3.03962 -7.46841,2.30259 z m 4.1557,-2.26925 c 1.25499,-0.77563 2.0591,-2.42009 2.2092,-4.51798 0.10874,-1.51975 0.0273,-2.00314 -0.54936,-3.26284 -0.83659,-1.82734 -1.88995,-2.54861 -3.72412,-2.55002 -1.78781,-0.001 -2.87472,0.72971 -3.75262,2.52407 -1.28043,2.61711 -0.59028,6.29837 1.43937,7.67756 1.20973,0.82203 3.16322,0.87969 4.37753,0.12921 z m 17.20533,2.13394 c -0.0652,-0.0652 -0.11921,-2.21206 -0.12003,-4.7708 -7.9e-4,-2.55874 -0.12397,-5.09333 -0.27369,-5.63241 -0.7279,-2.62086 -3.98606,-2.70705 -5.54709,-0.14675 -0.47381,0.77711 -0.52586,1.33947 -0.52675,5.69096 l -9.9e-4,4.82865 h -1.19063 -1.19062 l -0.002,-4.96094 c -7.9e-4,-2.72851 -0.078,-5.9432 -0.17151,-7.14375 l -0.16992,-2.18281 h 1.06751 c 1.06167,0 1.06848,0.006 1.24529,1.18553 l 0.17778,1.18553 0.97674,-1.02397 c 0.92886,-0.97378 2.37579,-1.6146 3.62257,-1.60439 1.07228,0.009 2.7768,1.01855 3.34501,1.9816 l 0.56337,0.95485 0.80522,-0.97687 c 1.81795,-2.2055 4.85438,-2.57571 6.76453,-0.82476 1.42155,1.30306 1.60663,2.23598 1.61294,8.12991 l 0.006,5.43554 -1.12448,-0.0116 -1.12448,-0.0116 -0.13229,-5.29166 c -0.0886,-3.54229 -0.24231,-5.48399 -0.46507,-5.87341 -1.14382,-1.99958 -3.72627,-1.81072 -5.21589,0.38145 -0.65498,0.96388 -0.66905,1.08565 -0.66905,5.79017 v 4.80558 l -1.07208,0.10224 c -0.58964,0.0562 -1.12543,0.0489 -1.19062,-0.0163 z m 9.31522,-24.22922 c -2.72686,-0.9711 -3.86986,-3.89889 -2.48008,-6.35268 0.84756,-1.49644 2.08804,-2.25678 3.68191,-2.25678 2.17301,0 3.87546,1.32206 4.44999,3.45571 0.87553,3.25147 -2.45794,6.29118 -5.65182,5.15375 z m 3.11042,-2.54435 c 1.81651,-2.15879 -0.46435,-5.13731 -2.94978,-3.85205 -2.33234,1.2061 -1.39382,4.6661 1.26567,4.6661 0.79087,0 1.14191,-0.16968 1.68411,-0.81405 z"
       id="path299"
       sodipodi:nodetypes="cssscscsscsscsscssssssssscsssssssssccsccccssssssccsccssssssssssscsssscsscccssscssssscssscccccssscssscsccsscsscsscccccsssccccccssscccccccccccscsccsscsscsssscssssssccsscssscssssscsscccsssssscssscccccccccssssssssccccssccccccscccccccccccsssscssscsscsccssssssscccscsssssscscsscssccsccssssscsccsssscccsscscsscccccccsssssssssssssssssssssssssssssssssssscssssssccssscssssccccccsccscscsscccccsssccccsssssssss" /><path
       id="rect613"
       style="opacity:1;fill:url(#linearGradient3852);fill-opacity:1;stroke:none;stroke-width:2.187;stroke-linecap:round;stroke-linejoin:bevel;stop-color:#000000"
       d="m 238.69534,132.1665 c -4.3257,0 -7.80779,3.48261 -7.80779,7.80831 v 24.36441 c 0,4.3257 3.48209,7.80831 7.80779,7.80831 h 0.16278 6.10919 0.16278 c 4.32574,0 7.80831,-3.48261 7.80831,-7.80831 v -24.36441 c 0,-4.3257 -3.48257,-7.80831 -7.80831,-7.80831 h -0.16278 -6.10919 z m 0.47491,3.4985 h 5.68027 c 2.69636,0 4.86689,2.28665 4.86689,5.12682 v 22.66166 c 0,2.84016 -2.17053,5.12682 -4.86689,5.12682 h -5.68027 c -2.69636,0 -4.86689,-2.28666 -4.86689,-5.12682 v -22.66166 c 0,-2.84017 2.17053,-5.12682 4.86689,-5.12682 z" /></g></svg>
